<?xml version="1.0" encoding="UTF-8"?>
<svg width="14px" height="16px" viewBox="0 0 14 16" version="1.1" xmlns="http://www.w3.org/2000/svg" xmlns:xlink="http://www.w3.org/1999/xlink">
    <!-- Generator: Sketch 64 (93537) - https://sketch.com -->
    <title>Shape</title>
    <desc>Created with Sketch.</desc>
    <g id="Side-Menu" stroke="none" stroke-width="1" fill="none" fill-rule="evenodd">
        <g id="Mobile-Menu-Open" transform="translate(-217.000000, -93.000000)" fill="#FFFFFF">
            <g id="Group-7">
                <g id="Group-4" transform="translate(20.000000, 73.000000)">
                    <path d="M203.253333,27.0093333 C203.253333,27.4386667 203.533333,27.784 204,27.784 C204.373333,27.784 204.746667,27.4386667 204.746667,27.0093333 L204.746667,20.7746667 C204.746667,20.3453333 204.373333,20 204,20 C203.533333,20 203.253333,20.3453333 203.253333,20.7746667 L203.253333,27.0093333 Z M207.826667,23.4906667 C208.106667,23.192 208.573333,23.192 208.853333,23.4906667 C210.44,25.0493333 211,27.056 211,28.484 C211,29.9213333 210.44,31.872 208.853333,33.412 C207.36,34.9706667 205.4,35.4933333 204,35.4933333 C202.506667,35.4933333 200.64,34.9613333 199.053333,33.412 C197.56,31.8626667 197,29.856 197,28.428 C197,26.9906667 197.56,25.04 199.053333,23.4906667 C199.333333,23.192 199.893333,23.192 200.173333,23.4906667 C200.453333,23.7986667 200.453333,24.2933333 200.173333,24.592 C198.96,25.8053333 198.586667,27.336 198.586667,28.428 C198.586667,29.5293333 198.96,31.1066667 200.173333,32.3106667 C201.386667,33.524 202.88,33.9346667 204,33.9346667 C205.026667,33.9346667 206.613333,33.5146667 207.826667,32.3106667 C209.04,31.1066667 209.413333,29.576 209.413333,28.484 C209.413333,27.3826667 209.04,25.796 207.826667,24.592 C207.546667,24.2933333 207.546667,23.7986667 207.826667,23.4906667 Z" id="Shape"></path>
                </g>
            </g>
        </g>
    </g>
</svg>